<?xml version="1.0" encoding="UTF-8"?>
<svg xmlns="http://www.w3.org/2000/svg" viewBox="0 0 640 420" role="img" aria-labelledby="title desc">
<title id="title">Tree roots in sewer line cartoon illustration</title><desc id="desc">A tree above ground with roots entering and clogging an underground sewer pipe.</desc>
<rect width="640" height="420" rx="18" fill="#f4f8fc"/><path d="M0 180H640V420H0Z" fill="#d8c9ad"/><path d="M0 180H640" stroke="#4d7c35" stroke-width="12"/>
<path d="M158 185L173 103 192 103 206 185Z" fill="#8b5e3c" stroke="#6b4226" stroke-width="5"/><circle cx="170" cy="78" r="54" fill="#65a30d"/><circle cx="217" cy="88" r="43" fill="#4d7c0f"/><circle cx="134" cy="105" r="37" fill="#84cc16"/>
<path d="M178 183C210 210 230 222 256 248S303 278 326 292M185 184C167 221 154 243 167 272S198 302 205 326M194 190C230 204 277 213 300 237S326 267 347 277M174 188C141 208 119 230 119 254" fill="none" stroke="#8b5e3c" stroke-width="10" stroke-linecap="round"/>
<path d="M72 314H562" stroke="#334155" stroke-width="62" stroke-linecap="round"/><path d="M72 314H562" stroke="#93c5fd" stroke-width="40" stroke-linecap="round"/>
<path d="M274 274C283 287 286 297 286 314M300 271C310 288 313 300 312 314M330 277C336 289 340 300 340 314M356 283C363 295 366 304 365 314" fill="none" stroke="#8b5e3c" stroke-width="9" stroke-linecap="round"/>
<path d="M270 298Q320 273 372 300" fill="none" stroke="#c2410c" stroke-width="5" stroke-dasharray="6 7"/>
<text x="30" y="383" font-family="Arial,sans-serif" font-size="22" font-weight="700" fill="#1e3a8a">TREE ROOTS IN SEWER</text>
</svg>